<?xml version="1.0" encoding="UTF-8"?>
<svg xmlns="http://www.w3.org/2000/svg" width="512" height="512" viewBox="0 0 512 512">
  <path d="M0,0 h25.6v25.6h-25.6z M25.6,0 h25.6v25.6h-25.6z M51.2,0 h25.6v25.6h-25.6z M76.8,0 h25.6v25.6h-25.6z M102.4,0 h25.6v25.6h-25.6z M128,0 h25.6v25.6h-25.6z M153.6,0 h25.6v25.6h-25.6z M179.2,0 h25.6v25.6h-25.6z M204.8,0 h25.6v25.6h-25.6z M230.4,0 h25.6v25.6h-25.6z M256,0 h25.6v25.6h-25.6z M281.6,0 h25.6v25.6h-25.6z M307.2,0 h25.6v25.6h-25.6z M332.8,0 h25.6v25.6h-25.6z M358.4,0 h25.6v25.6h-25.6z M384,0 h25.6v25.6h-25.6z M409.6,0 h25.6v25.6h-25.6z M435.2,0 h25.6v25.6h-25.6z M460.8,0 h25.6v25.6h-25.6z M486.4,0 h25.6v25.6h-25.6z M0,25.6 h25.6v25.6h-25.6z M25.6,25.6 h25.6v25.6h-25.6z M51.2,25.6 h25.6v25.6h-25.6z M76.8,25.6 h25.6v25.6h-25.6z M102.4,25.6 h25.6v25.6h-25.6z M128,25.6 h25.6v25.6h-25.6z M153.6,25.6 h25.6v25.6h-25.6z M179.2,25.6 h25.6v25.6h-25.6z M204.8,25.6 h25.6v25.6h-25.6z M230.4,25.6 h25.6v25.6h-25.6z M256,25.6 h25.6v25.6h-25.6z M281.6,25.6 h25.6v25.6h-25.6z M307.2,25.6 h25.6v25.6h-25.6z M332.8,25.6 h25.6v25.6h-25.6z M358.4,25.6 h25.6v25.6h-25.6z M384,25.6 h25.6v25.6h-25.6z M409.6,25.6 h25.6v25.6h-25.6z M435.2,25.6 h25.6v25.6h-25.6z M460.8,25.6 h25.6v25.6h-25.6z M486.4,25.6 h25.6v25.6h-25.6z M0,51.2 h25.6v25.6h-25.6z M25.6,51.2 h25.6v25.6h-25.6z M51.2,51.2 h25.6v25.6h-25.6z M76.8,51.2 h25.6v25.6h-25.6z M102.4,51.2 h25.6v25.6h-25.6z M128,51.2 h25.6v25.6h-25.6z M153.6,51.2 h25.6v25.6h-25.6z M179.2,51.2 h25.6v25.6h-25.6z M204.8,51.2 h25.6v25.6h-25.6z M230.4,51.2 h25.6v25.6h-25.6z M256,51.2 h25.6v25.6h-25.6z M281.6,51.2 h25.6v25.6h-25.6z M307.2,51.2 h25.6v25.6h-25.6z M332.8,51.2 h25.6v25.6h-25.6z M358.4,51.2 h25.6v25.6h-25.6z M384,51.2 h25.6v25.6h-25.6z M409.6,51.2 h25.6v25.6h-25.6z M435.2,51.2 h25.6v25.6h-25.6z M460.8,51.2 h25.6v25.6h-25.6z M486.4,51.2 h25.6v25.6h-25.6z M0,76.8 h25.6v25.6h-25.6z M25.6,76.8 h25.6v25.6h-25.6z M51.2,76.8 h25.6v25.6h-25.6z M76.8,76.8 h25.6v25.6h-25.6z M102.4,76.8 h25.6v25.6h-25.6z M128,76.8 h25.6v25.6h-25.6z M153.6,76.8 h25.6v25.6h-25.6z M179.2,76.8 h25.6v25.6h-25.6z M204.8,76.8 h25.6v25.6h-25.6z M230.4,76.8 h25.6v25.6h-25.6z M256,76.8 h25.6v25.6h-25.6z M281.6,76.8 h25.6v25.6h-25.6z M307.2,76.8 h25.6v25.6h-25.6z M332.8,76.8 h25.6v25.6h-25.6z M384,76.8 h25.6v25.6h-25.6z M409.6,76.8 h25.6v25.6h-25.6z M435.2,76.8 h25.6v25.6h-25.6z M460.8,76.8 h25.6v25.6h-25.6z M486.4,76.8 h25.6v25.6h-25.6z M0,102.4 h25.6v25.6h-25.6z M25.6,102.4 h25.6v25.6h-25.6z M51.2,102.4 h25.6v25.6h-25.6z M76.8,102.4 h25.6v25.6h-25.6z M128,102.4 h25.6v25.6h-25.6z M153.6,102.4 h25.6v25.6h-25.6z M179.2,102.4 h25.6v25.6h-25.6z M204.8,102.4 h25.6v25.6h-25.6z M230.4,102.4 h25.6v25.6h-25.6z M256,102.4 h25.6v25.6h-25.6z M281.6,102.4 h25.6v25.6h-25.6z M435.2,102.4 h25.6v25.6h-25.6z M460.8,102.4 h25.6v25.6h-25.6z M486.4,102.4 h25.6v25.6h-25.6z M0,128 h25.6v25.6h-25.6z M25.6,128 h25.6v25.6h-25.6z M51.2,128 h25.6v25.6h-25.6z M76.8,128 h25.6v25.6h-25.6z M179.2,128 h25.6v25.6h-25.6z M204.8,128 h25.6v25.6h-25.6z M230.4,128 h25.6v25.6h-25.6z M256,128 h25.6v25.6h-25.6z M460.8,128 h25.6v25.6h-25.6z M486.4,128 h25.6v25.6h-25.6z M0,153.6 h25.6v25.6h-25.6z M25.6,153.6 h25.6v25.6h-25.6z M51.2,153.6 h25.6v25.6h-25.6z M128,153.6 h25.6v25.6h-25.6z M153.6,153.6 h25.6v25.6h-25.6z M384,153.6 h25.6v25.6h-25.6z M409.6,153.6 h25.6v25.6h-25.6z M435.2,153.6 h25.6v25.6h-25.6z M460.8,153.6 h25.6v25.6h-25.6z M486.4,153.6 h25.6v25.6h-25.6z M0,179.2 h25.6v25.6h-25.6z M25.6,179.2 h25.6v25.6h-25.6z M51.2,179.2 h25.6v25.6h-25.6z M76.8,179.2 h25.6v25.6h-25.6z M102.4,179.2 h25.6v25.6h-25.6z M128,179.2 h25.6v25.6h-25.6z M384,179.2 h25.6v25.6h-25.6z M409.6,179.2 h25.6v25.6h-25.6z M435.2,179.2 h25.6v25.6h-25.6z M460.8,179.2 h25.6v25.6h-25.6z M486.4,179.2 h25.6v25.6h-25.6z M0,204.8 h25.6v25.6h-25.6z M25.6,204.8 h25.6v25.6h-25.6z M51.2,204.8 h25.6v25.6h-25.6z M76.8,204.8 h25.6v25.6h-25.6z M128,204.8 h25.6v25.6h-25.6z M153.6,204.8 h25.6v25.6h-25.6z M384,204.8 h25.6v25.6h-25.6z M409.6,204.8 h25.6v25.6h-25.6z M435.2,204.8 h25.6v25.6h-25.6z M460.8,204.8 h25.6v25.6h-25.6z M486.4,204.8 h25.6v25.6h-25.6z M0,230.4 h25.6v25.6h-25.6z M25.6,230.4 h25.6v25.6h-25.6z M51.2,230.4 h25.6v25.6h-25.6z M102.4,230.4 h25.6v25.6h-25.6z M128,230.4 h25.6v25.6h-25.6z M358.4,230.4 h25.6v25.6h-25.6z M384,230.4 h25.6v25.6h-25.6z M435.2,230.4 h25.6v25.6h-25.6z M460.8,230.4 h25.6v25.6h-25.6z M486.4,230.4 h25.6v25.6h-25.6z M0,256 h25.6v25.6h-25.6z M25.6,256 h25.6v25.6h-25.6z M51.2,256 h25.6v25.6h-25.6z M76.8,256 h25.6v25.6h-25.6z M102.4,256 h25.6v25.6h-25.6z M128,256 h25.6v25.6h-25.6z M153.6,256 h25.6v25.6h-25.6z M179.2,256 h25.6v25.6h-25.6z M204.8,256 h25.6v25.6h-25.6z M230.4,256 h25.6v25.6h-25.6z M256,256 h25.6v25.6h-25.6z M281.6,256 h25.6v25.6h-25.6z M307.2,256 h25.6v25.6h-25.6z M332.8,256 h25.6v25.6h-25.6z M358.4,256 h25.6v25.6h-25.6z M409.6,256 h25.6v25.6h-25.6z M460.8,256 h25.6v25.6h-25.6z M486.4,256 h25.6v25.6h-25.6z M0,281.6 h25.6v25.6h-25.6z M25.6,281.6 h25.6v25.6h-25.6z M51.2,281.6 h25.6v25.6h-25.6z M76.8,281.6 h25.6v25.6h-25.6z M128,281.6 h25.6v25.6h-25.6z M153.6,281.6 h25.6v25.6h-25.6z M179.2,281.6 h25.6v25.6h-25.6z M204.8,281.6 h25.6v25.6h-25.6z M230.4,281.6 h25.6v25.6h-25.6z M256,281.6 h25.6v25.6h-25.6z M281.6,281.6 h25.6v25.6h-25.6z M307.2,281.6 h25.6v25.6h-25.6z M332.8,281.6 h25.6v25.6h-25.6z M358.4,281.6 h25.6v25.6h-25.6z M384,281.6 h25.6v25.6h-25.6z M409.6,281.6 h25.6v25.6h-25.6z M435.2,281.6 h25.6v25.6h-25.6z M460.8,281.6 h25.6v25.6h-25.6z M486.4,281.6 h25.6v25.6h-25.6z M0,307.2 h25.6v25.6h-25.6z M25.6,307.2 h25.6v25.6h-25.6z M51.2,307.2 h25.6v25.6h-25.6z M76.8,307.2 h25.6v25.6h-25.6z M102.4,307.2 h25.6v25.6h-25.6z M128,307.2 h25.6v25.6h-25.6z M153.6,307.2 h25.6v25.6h-25.6z M179.2,307.2 h25.6v25.6h-25.6z M204.8,307.2 h25.6v25.6h-25.6z M230.4,307.2 h25.6v25.6h-25.6z M256,307.2 h25.6v25.6h-25.6z M281.6,307.2 h25.6v25.6h-25.6z M307.2,307.2 h25.6v25.6h-25.6z M332.8,307.2 h25.6v25.6h-25.6z M358.4,307.2 h25.6v25.6h-25.6z M384,307.2 h25.6v25.6h-25.6z M409.6,307.2 h25.6v25.6h-25.6z M435.2,307.2 h25.6v25.6h-25.6z M460.8,307.2 h25.6v25.6h-25.6z M486.4,307.2 h25.6v25.6h-25.6z M0,332.8 h25.6v25.6h-25.6z M25.6,332.8 h25.6v25.6h-25.6z M51.2,332.8 h25.6v25.6h-25.6z M76.8,332.8 h25.6v25.6h-25.6z M102.4,332.8 h25.6v25.6h-25.6z M128,332.8 h25.6v25.6h-25.6z M153.6,332.8 h25.6v25.6h-25.6z M179.2,332.8 h25.6v25.6h-25.6z M204.8,332.8 h25.6v25.6h-25.6z M230.4,332.8 h25.6v25.6h-25.6z M256,332.8 h25.6v25.6h-25.6z M281.6,332.8 h25.6v25.6h-25.6z M307.2,332.8 h25.6v25.6h-25.6z M332.8,332.8 h25.6v25.6h-25.6z M358.4,332.8 h25.6v25.6h-25.6z M384,332.8 h25.6v25.6h-25.6z M409.6,332.8 h25.6v25.6h-25.6z M435.2,332.8 h25.6v25.6h-25.6z M460.8,332.8 h25.6v25.6h-25.6z M486.4,332.8 h25.6v25.6h-25.6z M0,358.4 h25.6v25.6h-25.6z M25.6,358.4 h25.6v25.6h-25.6z M128,358.4 h25.6v25.6h-25.6z M153.6,358.4 h25.6v25.6h-25.6z M179.2,358.4 h25.6v25.6h-25.6z M204.8,358.4 h25.6v25.6h-25.6z M230.4,358.4 h25.6v25.6h-25.6z M256,358.4 h25.6v25.6h-25.6z M281.6,358.4 h25.6v25.6h-25.6z M307.2,358.4 h25.6v25.6h-25.6z M332.8,358.4 h25.6v25.6h-25.6z M358.4,358.4 h25.6v25.6h-25.6z M384,358.4 h25.6v25.6h-25.6z M409.6,358.4 h25.6v25.6h-25.6z M435.2,358.4 h25.6v25.6h-25.6z M460.8,358.4 h25.6v25.6h-25.6z M486.4,358.4 h25.6v25.6h-25.6z M0,384 h25.6v25.6h-25.6z M25.6,384 h25.6v25.6h-25.6z M76.8,384 h25.6v25.6h-25.6z M179.2,384 h25.6v25.6h-25.6z M256,384 h25.6v25.6h-25.6z M332.8,384 h25.6v25.6h-25.6z M486.4,384 h25.6v25.6h-25.6z M0,409.6 h25.6v25.6h-25.6z M25.6,409.6 h25.6v25.6h-25.6z M102.4,409.6 h25.6v25.6h-25.6z M153.6,409.6 h25.6v25.6h-25.6z M256,409.6 h25.6v25.6h-25.6z M332.8,409.6 h25.6v25.6h-25.6z M358.4,409.6 h25.6v25.6h-25.6z M435.2,409.6 h25.6v25.6h-25.6z M486.4,409.6 h25.6v25.6h-25.6z M0,435.2 h25.6v25.6h-25.6z M25.6,435.2 h25.6v25.6h-25.6z M51.2,435.2 h25.6v25.6h-25.6z M76.8,435.2 h25.6v25.6h-25.6z M102.4,435.2 h25.6v25.6h-25.6z M128,435.2 h25.6v25.6h-25.6z M153.6,435.2 h25.6v25.6h-25.6z M179.2,435.2 h25.6v25.6h-25.6z M204.8,435.2 h25.6v25.6h-25.6z M230.4,435.2 h25.6v25.6h-25.6z M256,435.2 h25.6v25.6h-25.6z M281.6,435.2 h25.6v25.6h-25.6z M332.8,435.2 h25.6v25.6h-25.6z M358.4,435.2 h25.6v25.6h-25.6z M384,435.2 h25.6v25.6h-25.6z M409.6,435.2 h25.6v25.6h-25.6z M435.2,435.2 h25.6v25.6h-25.6z M460.8,435.2 h25.6v25.6h-25.6z M486.4,435.2 h25.6v25.6h-25.6z M0,460.8 h25.6v25.6h-25.6z M25.6,460.8 h25.6v25.6h-25.6z M51.2,460.8 h25.6v25.6h-25.6z M76.8,460.8 h25.6v25.6h-25.6z M102.4,460.8 h25.6v25.6h-25.6z M128,460.8 h25.6v25.6h-25.6z M153.6,460.8 h25.6v25.6h-25.6z M179.2,460.8 h25.6v25.6h-25.6z M204.8,460.8 h25.6v25.6h-25.6z M230.4,460.8 h25.6v25.6h-25.6z M256,460.8 h25.6v25.6h-25.6z M307.2,460.8 h25.6v25.6h-25.6z M332.8,460.8 h25.6v25.6h-25.6z M358.4,460.8 h25.6v25.6h-25.6z M384,460.8 h25.6v25.6h-25.6z M409.6,460.8 h25.6v25.6h-25.6z M435.2,460.8 h25.6v25.6h-25.6z M460.8,460.8 h25.6v25.6h-25.6z M486.4,460.8 h25.6v25.6h-25.6z M0,486.4 h25.6v25.6h-25.6z M25.6,486.4 h25.6v25.6h-25.6z M51.2,486.4 h25.6v25.6h-25.6z M76.8,486.4 h25.6v25.6h-25.6z M102.4,486.4 h25.6v25.6h-25.6z M128,486.4 h25.6v25.6h-25.6z M153.6,486.4 h25.6v25.6h-25.6z M179.2,486.4 h25.6v25.6h-25.6z M204.8,486.4 h25.6v25.6h-25.6z M230.4,486.4 h25.6v25.6h-25.6z M256,486.4 h25.6v25.6h-25.6z M281.6,486.4 h25.6v25.6h-25.6z M307.2,486.4 h25.6v25.6h-25.6z M332.8,486.4 h25.6v25.6h-25.6z M358.4,486.4 h25.6v25.6h-25.6z M384,486.4 h25.6v25.6h-25.6z M409.6,486.4 h25.6v25.6h-25.6z M435.2,486.4 h25.6v25.6h-25.6z M460.8,486.4 h25.6v25.6h-25.6z M486.4,486.4 h25.6v25.6h-25.6z" fill="#000000"/>
</svg>